PathFileType	4	(X/Y/Z)	D:\mayra\Descargas\0003~aa~Standing.trc
DataRate	CameraRate	NumFrames	NumMarkers	Units	OrigDataRate	OrigDataStartFrame	OrigNumFrames
250.00	250.00	9	22	mm	250.00	269	2178
Frame#	Time	r.should			l.should			c7			r.asis			l.asis			sacrum			r.bar1			l.bar1			r.knee1			l.knee1			r.bar2			r.mall			l.bar2			l.mall			r.met			r.heel			l.heel			l.met			r.mallm			l.mallm			r.kneem			l.kneem			
		X1	Y1	Z1	X2	Y2	Z2	X3	Y3	Z3	X4	Y4	Z4	X5	Y5	Z5	X6	Y6	Z6	X7	Y7	Z7	X8	Y8	Z8	X9	Y9	Z9	X10	Y10	Z10	X11	Y11	Z11	X12	Y12	Z12	X13	Y13	Z13	X14	Y14	Z14	X15	Y15	Z15	X16	Y16	Z16	X17	Y17	Z17	X18	Y18	Z18	X19	Y19	Z19	X20	Y20	Z20	X21	Y21	Z21	X22	Y22	Z22	

268	1.072000	1000.809312	1331.199646	361.395538	1034.719706	1321.886063	72.203577	921.335101	1355.845928	224.917576	1135.990858	871.203184	361.533225	1084.701777	872.712493	59.507281	884.383202	938.345253	234.934866	1033.113360	835.009575	434.636593	1026.864171	793.350816	27.064858	1007.516503	467.914879	388.435781	1000.753880	447.204739	96.446142	1004.240751	405.460656	383.631676	970.784605	76.203600	364.084661	979.594648	403.414786	93.766570	974.608123	70.340417	111.090079	1115.966558	42.638473	345.087647	909.009993	33.408437	319.100052	913.664579	31.333961	158.501059	1117.292404	40.864594	129.259318	980.651736	75.242072	280.403852	983.971238	74.976519	188.565329	1034.047127	450.541943	249.456868	1009.568691	447.908580	230.076373	
269	1.076000	1000.793219	1331.185102	361.405730	1034.706831	1321.876764	72.213486	921.341181	1355.834603	224.931926	1136.015654	871.197283	361.535937	1084.789157	872.739255	59.472430	884.416163	938.333333	234.935537	1033.152819	835.006475	434.656262	1026.874304	793.342829	27.063366	1007.541060	467.906833	388.438702	1000.758410	447.194278	96.450627	1004.255533	405.460894	383.644402	970.804811	76.198392	364.095718	979.624748	403.411269	93.781978	974.589705	70.343196	111.097082	1115.963101	42.635541	345.084310	909.023762	33.409156	319.108397	913.668036	31.326540	158.507049	1117.281795	40.854536	129.264280	980.628848	75.237721	280.415893	983.971238	74.975468	188.577861	1034.077406	450.544953	249.441758	1009.599090	447.898865	230.081946	
270	1.080000	1000.772238	1331.170797	361.414433	1034.703016	1321.875930	72.223410	921.362758	1355.814338	224.941134	1136.033535	871.195912	361.538082	1084.841132	872.755170	59.460070	884.445131	938.324213	234.938771	1033.164024	834.998310	434.656680	1026.895046	793.342769	27.067274	1007.570505	467.905879	388.441771	1000.789881	447.194517	96.457198	1004.286647	405.458659	383.640766	970.800996	76.201484	364.089638	979.650736	403.410196	93.794249	974.598587	70.342928	111.103602	1115.960836	42.637713	345.081270	909.034371	33.410557	319.111407	913.670540	31.330090	158.505782	1117.281199	40.859677	129.262447	980.619967	75.226516	280.408859	983.986855	74.963510	188.589215	1034.069538	450.524896	249.458760	1009.637952	447.911084	230.090573	
271	1.084000	1000.765681	1331.158161	361.422777	1034.689903	1321.871877	72.220638	921.360195	1355.810165	224.943921	1136.052966	871.198952	361.543179	1084.843516	872.741163	59.478357	884.487331	938.320518	234.934568	1033.178687	834.990621	434.653699	1026.935101	793.344140	27.070258	1007.598877	467.912018	388.443291	1000.821590	447.202593	96.452452	1004.314661	405.466110	383.641779	970.791519	76.206088	364.070296	979.701579	403.410345	93.799762	974.615753	70.337333	111.101940	1115.954161	42.632990	345.085204	909.030199	33.408456	319.112659	913.662970	31.334948	158.504412	1117.276311	40.860407	129.260138	980.639756	75.225003	280.404299	983.992815	74.965328	188.592464	1034.081697	450.513244	249.467179	1009.671092	447.914720	230.093971	
272	1.088000	1000.749707	1331.145525	361.426473	1034.680247	1321.868300	72.220206	921.345949	1355.810404	224.954709	1136.075258	871.201456	361.541331	1084.870696	872.737527	59.479028	884.512365	938.311934	234.922707	1033.185005	834.981680	434.643567	1026.961565	793.337643	27.070278	1007.620454	467.916489	388.442844	1000.863552	447.204947	96.450731	1004.327774	405.462831	383.644849	970.799446	76.200776	364.073813	979.728878	403.408170	93.801811	974.618971	70.337147	111.098267	1115.947247	42.633574	345.088273	909.013867	33.401079	319.106311	913.657546	31.337034	158.508003	1117.264509	40.856030	129.263371	980.652690	75.224750	280.412495	983.983219	74.964456	188.587293	1034.094930	450.506002	249.464810	1009.696960	447.910637	230.094284	
273	1.092000	1000.738859	1331.135988	361.428797	1034.668684	1321.868420	72.217315	921.322048	1355.810642	224.955127	1136.100769	871.207058	361.540049	1084.892750	872.736335	59.482329	884.511948	938.308418	234.909102	1033.192992	834.974468	434.635013	1026.999235	793.336213	27.072862	1007.644653	467.915386	388.440341	1000.905514	447.209686	96.456058	1004.337907	405.455649	383.636892	970.795870	76.198660	364.082634	979.737222	403.405160	93.802318	974.619865	70.340350	111.101791	1115.957737	42.632811	345.092058	909.009933	33.409372	319.110870	913.658917	31.336330	158.517152	1117.270708	40.867746	129.261032	980.660915	75.228170	280.410558	983.974636	74.968591	188.586980	1034.055591	450.458944	249.504223	1009.726405	447.909355	230.094820	
274	1.096000	1000.715494	1331.124544	361.436725	1034.643888	1321.858168	72.222486	921.303213	1355.809212	224.947989	1136.140108	871.224046	361.547023	1084.933400	872.733951	59.479512	884.563565	938.301444	234.895855	1033.226967	834.961653	434.628487	1027.037621	793.346643	27.075913	1007.667422	467.917979	388.433754	1000.941277	447.205722	96.460752	1004.363298	405.456662	383.629918	970.794797	76.197863	364.089012	979.763567	403.401345	93.799755	974.629521	70.346482	111.109316	1115.958452	42.634010	345.092505	909.021258	33.409741	319.109440	913.657129	31.334657	158.511668	1117.277741	40.874735	129.255757	980.660439	75.225212	280.403405	983.981669	74.966706	188.583985	1034.003615	450.417757	249.548659	1009.758234	447.912782	230.095252	
275	1.100000	1000.695825	1331.108928	361.438662	1034.646988	1321.855068	72.225787	921.286047	1355.798244	224.941447	1136.182547	871.232271	361.539930	1084.946275	872.721434	59.485860	884.583473	938.303173	234.899282	1033.267498	834.956646	434.616596	1027.093053	793.366730	27.076788	1007.688642	467.923045	388.434589	1000.976801	447.206259	96.461579	1004.394650	405.455709	383.624911	970.796049	76.209888	364.088923	979.802489	403.400928	93.803518	974.640369	70.355758	111.109808	1115.964770	42.639211	345.086455	909.024477	33.407498	319.103062	913.662791	31.335950	158.499673	1117.284656	40.879354	129.249215	980.667830	75.233757	280.398697	983.986378	74.966848	188.581496	1033.981800	450.395852	249.576107	1009.795547	447.916567	230.092496	
276	1.104000	1000.674725	1331.097841	361.442506	1034.642816	1321.853638	72.225995	921.286404	1355.785847	224.948287	1136.200547	871.228337	361.536801	1085.000038	872.728348	59.475657	884.618461	938.299954	234.899372	1033.298850	834.956765	434.609950	1027.134061	793.370247	27.076794	1007.723331	467.925370	388.432384	1001.017809	447.211236	96.456200	1004.428744	405.454934	383.622676	970.811307	76.222323	364.074111	979.839623	403.406918	93.802564	974.637687	70.358291	111.099258	1115.970254	42.643368	345.084012	909.017384	33.401854	319.099098	913.667202	31.338956	158.500224	1117.291451	40.881488	129.247427	980.672538	75.249106	280.395329	983.992577	74.972570	188.583717	1034.026504	450.399548	249.562204	1009.837627	447.920203	230.091855	
